<?xml version="1.0" encoding="UTF-8" standalone="no"?>
<svg xmlns="http://www.w3.org/2000/svg" version="1.0" width="624px" height="527px" viewBox="0 0 6240 5270" preserveAspectRatio="xMidYMid meet">
	<g transform="rotate(180,3210,2611.9036)">
		<path d="m 705,2923 -72,-296 412,-277 c 19,-17 21,-27 15,-65 -4,-25 -10,-48 -13,-51 l -413,118 c -14,22 -24,3 -24,-46 -6.66667,-42.3333 -13.33333,-84.6667 -20,-127 0,-49 3,-59 18,-59 51,0 356,-21 362,-25 L 729,895 c -7,-10 -29,-123 -29,-153 0,-16 49,18 50,34 l 319,384 c 15,18 22,21 33,13 7,-6 553,-93 564,-100 l 379,-717 166,599 918,-702 c 18,-33 24,-4 12,58 l -205,831 c -9,48 5,49 53,3 l 801,-685 c 20,-38 40,-24 40,28 l -61,837 c -12,13 -11,62 1,70 6,3 13,-1 16,-9 l 926,-578 c 23,-17 34,-3 20,25 -6,12 -218,822 -224,834 -14,28 -1,44 16,20 L 5962,650 c 17,-26 48,-26 48,-1 0,11 -4,22 -9,25 L 5110,2350 4402,3472 3370,4925 c 0,15 -16.83,18.8113 -42,8 -25.17,-10.8113 -27.5374,-23.7662 -53,-37 -25.4626,-13.2338 -46,-38 -26,-50 l 567,-1503 14,-255 -300,-258 -605,-9 -261,111 -442,527 -463,1078 c -9,25 -11,25 -77,19 -181,-17 -182,-17 -182,-35 0,-9 4,-21 8,-26 5,-6 15,-55 22,-110 l 303,-2127 c -2,-5 -21,-8 -42,-8 -34,0 -42,5 -67,42 l -274,371 c -1,15 -39,58 -68,74 -37,22 -113,35 -127,23 l -90,-278 z" style="fill:#000000;stroke:none" />
		<path d="m 1006.2076,1688.4725 307.0445,-195.392 M 1284,1732 1022.9555,1459.5847 m 524.767,200.9746 323.7923,-228.8877 M 1806,1732 1575.6356,1370.2627" style="fill:none;stroke:#ffffff;stroke-width:50" />
	</g>
</svg>
